<svg xmlns="http://www.w3.org/2000/svg" viewBox="0 0 140 280" width="140" height="280" overflow="visible">
    <!-- L'occupant : personnage flat plein corps, 4 états à COUCHES gated par la
         classe .comfort-* de la scène (cold/cool/warm/hot). Piloté par le confort
         RESSENTI, pas la consigne. Un seul état visible à la fois (scene.css). -->

    <!-- ============ TRANSI (ressenti < 14 °C) — emmitouflé, voûté, tremble ============ -->
    <g class="occ occ-cold">
        <!-- buée devant la bouche -->
        <g fill="#cfe6f4" opacity=".7">
            <circle cx="96" cy="52" r="5"/><circle cx="106" cy="47" r="4"/><circle cx="114" cy="44" r="3"/>
        </g>
        <!-- jambes serrées (pantalon) -->
        <rect x="56" y="196" width="13" height="64" rx="5" fill="#2f3f52"/>
        <rect x="71" y="196" width="13" height="64" rx="5" fill="#2a3949"/>
        <rect x="53" y="258" width="19" height="10" rx="3" fill="#22303f"/>
        <rect x="70" y="258" width="19" height="10" rx="3" fill="#22303f"/>
        <!-- plaid sur les épaules -->
        <path d="M34 104 q36 -16 72 0 l8 78 q-44 12 -88 0z" fill="#7d5b8a"/>
        <path d="M34 104 q36 -16 72 0" fill="none" stroke="#614470" stroke-width="3"/>
        <!-- manteau + bras qui s'enlacent -->
        <rect x="48" y="104" width="44" height="96" rx="14" fill="#3c566f"/>
        <path d="M50 128 q20 22 40 0 l-2 16 q-18 16 -36 0z" fill="#334a60"/>
        <!-- écharpe -->
        <rect x="52" y="92" width="36" height="17" rx="8" fill="#c05a4f"/>
        <!-- tête (rentrée dans les épaules) + bonnet -->
        <circle cx="70" cy="64" r="21" fill="#e9c3a0"/>
        <path d="M49 60 a21 21 0 0 1 42 0 z" fill="#c05a4f"/>
        <rect x="47" y="55" width="46" height="9" rx="4" fill="#a3473d"/>
        <circle cx="70" cy="44" r="5" fill="#d06b60"/>
        <!-- visage grelottant -->
        <circle cx="70" cy="70" r="3" fill="#dd9077"/>
        <path d="M60 64 l8 3 M80 64 l-8 3" stroke="#5a3d2a" stroke-width="2"/>
        <circle cx="63" cy="68" r="1.7" fill="#33240f"/><circle cx="77" cy="68" r="1.7" fill="#33240f"/>
        <path d="M65 77 q5 -3 10 0" fill="none" stroke="#8a5a44" stroke-width="2"/>
        <!-- traits de tremblement -->
        <g stroke="#6db3e6" stroke-width="2" stroke-linecap="round" opacity=".85">
            <path d="M30 122 l-6 -3 M30 136 l-6 3"/><path d="M110 122 l6 -3 M110 136 l6 3"/>
        </g>
    </g>

    <!-- ============ FRILEUX (14-18 °C) — gros pull, bras croisés, léger repli ============ -->
    <g class="occ occ-cool">
        <rect x="56" y="196" width="13" height="64" rx="5" fill="#3a4a3a"/>
        <rect x="71" y="196" width="13" height="64" rx="5" fill="#344333"/>
        <rect x="53" y="258" width="19" height="10" rx="3" fill="#2a3527"/>
        <rect x="70" y="258" width="19" height="10" rx="3" fill="#2a3527"/>
        <!-- pull -->
        <rect x="48" y="100" width="44" height="100" rx="14" fill="#5a7a52"/>
        <!-- col roulé -->
        <rect x="56" y="88" width="28" height="16" rx="7" fill="#4c6846"/>
        <!-- bras croisés -->
        <path d="M49 124 q21 16 42 0 l-3 15 q-18 12 -36 0z" fill="#4c6846"/>
        <!-- mains -->
        <circle cx="52" cy="136" r="5" fill="#e9c3a0"/><circle cx="88" cy="136" r="5" fill="#e9c3a0"/>
        <!-- tête -->
        <circle cx="70" cy="66" r="21" fill="#e9c3a0"/>
        <path d="M50 62 a20 20 0 0 1 40 0 q-20 -11 -40 0z" fill="#5a4632"/>
        <path d="M60 62 l8 2 M80 62 l-8 2" stroke="#5a3d2a" stroke-width="1.6"/>
        <circle cx="63" cy="68" r="1.7" fill="#33240f"/><circle cx="77" cy="68" r="1.7" fill="#33240f"/>
        <path d="M65 78 q5 -1 10 0" fill="none" stroke="#8a5a44" stroke-width="2"/>
    </g>

    <!-- ============ À L'AISE (18-25 °C) — droit, détendu, souriant ============ -->
    <g class="occ occ-warm">
        <rect x="56" y="196" width="13" height="66" rx="5" fill="#3f5064"/>
        <rect x="71" y="196" width="13" height="66" rx="5" fill="#384858"/>
        <rect x="53" y="260" width="19" height="10" rx="3" fill="#7a5b44"/>
        <rect x="70" y="260" width="19" height="10" rx="3" fill="#7a5b44"/>
        <!-- t-shirt manches mi-longues -->
        <rect x="49" y="100" width="42" height="100" rx="13" fill="#4f7fa8"/>
        <!-- bras détendus le long du corps -->
        <rect x="43" y="104" width="12" height="60" rx="6" fill="#e9c3a0"/>
        <rect x="85" y="104" width="12" height="60" rx="6" fill="#e9c3a0"/>
        <rect x="43" y="104" width="12" height="26" rx="6" fill="#4f7fa8"/>
        <rect x="85" y="104" width="12" height="26" rx="6" fill="#4f7fa8"/>
        <circle cx="49" cy="166" r="5.5" fill="#e9c3a0"/><circle cx="91" cy="166" r="5.5" fill="#e9c3a0"/>
        <!-- tête -->
        <circle cx="70" cy="66" r="21" fill="#e9c3a0"/>
        <path d="M50 62 a20 20 0 0 1 40 0 q-20 -11 -40 0z" fill="#5a4632"/>
        <circle cx="63" cy="66" r="1.9" fill="#33240f"/><circle cx="77" cy="66" r="1.9" fill="#33240f"/>
        <path d="M63 76 q7 6 14 0" fill="none" stroke="#8a5a44" stroke-width="2.2"/>
    </g>

    <!-- ============ EN SUEUR (> 25 °C) — t-shirt + short, s'évente, transpire ============ -->
    <g class="occ occ-hot">
        <!-- gouttes de sueur -->
        <g fill="#7ec8f0"><path d="M92 50 q3 5 0 8 q-3 -3 0 -8z"/><path d="M48 54 q3 5 0 8 q-3 -3 0 -8z"/></g>
        <!-- jambes NUES (short) -->
        <rect x="56" y="176" width="13" height="84" rx="5" fill="#e0b48f"/>
        <rect x="71" y="176" width="13" height="84" rx="5" fill="#d6aa85"/>
        <rect x="53" y="258" width="19" height="10" rx="3" fill="#cfd2d6"/>
        <rect x="70" y="258" width="19" height="10" rx="3" fill="#cfd2d6"/>
        <!-- short -->
        <rect x="50" y="160" width="40" height="30" rx="6" fill="#c8794a"/>
        <!-- t-shirt manches courtes -->
        <rect x="50" y="100" width="40" height="64" rx="12" fill="#e08a4a"/>
        <path d="M46 104 l10 0 l0 22 l-12 -2z" fill="#e08a4a"/>
        <path d="M94 104 l-10 0 l0 22 l12 -2z" fill="#e08a4a"/>
        <!-- bras gauche le long -->
        <rect x="42" y="122" width="11" height="46" rx="5.5" fill="#e0b48f"/>
        <circle cx="47" cy="170" r="5" fill="#e0b48f"/>
        <!-- bras droit qui s'évente, éventail -->
        <g transform="rotate(-32 92 122)">
            <rect x="86" y="88" width="11" height="40" rx="5.5" fill="#e0b48f"/>
            <path d="M80 84 h24 l-5 -12 h-14z" fill="#d9d2c4"/>
            <g stroke="#b7b0a2" stroke-width="1"><path d="M92 84 v-9 M87 84 l-2 -8 M97 84 l2 -8"/></g>
        </g>
        <!-- tête, joues rouges -->
        <circle cx="70" cy="66" r="21" fill="#eec2a0"/>
        <circle cx="60" cy="72" r="4" fill="#e79b86" opacity=".7"/><circle cx="80" cy="72" r="4" fill="#e79b86" opacity=".7"/>
        <path d="M50 62 a20 20 0 0 1 40 0 q-20 -11 -40 0z" fill="#5a4632"/>
        <circle cx="63" cy="66" r="1.9" fill="#33240f"/><circle cx="77" cy="66" r="1.9" fill="#33240f"/>
        <ellipse cx="70" cy="77" rx="4" ry="3" fill="#8a5a44"/>
    </g>
</svg>
