<svg xmlns="http://www.w3.org/2000/svg" viewBox="0 0 150 275" width="150" height="275" overflow="visible">
    <!-- Arbre du jardin — tronc affirmé ; la neige de canopée s'affiche sous .frost. -->
    <ellipse cx="74" cy="258" rx="70" ry="12" fill="#adbfd0" opacity=".4"/>
    <path d="M62 258 q2 -52 0 -92 q-12 -18 -26 -26 q16 2 28 12 q-2 -26 4 -46 q6 22 8 46 q12 -12 28 -16 q-14 10 -26 28 q-2 42 2 94z" fill="#4c3a2c"/>
    <path d="M66 258 q0 -48 0 -90 l10 -2 q2 44 4 92z" fill="#5d4936"/>
    <g fill="#2e4a38">
        <circle cx="72" cy="66" r="46"/><circle cx="36" cy="102" r="36"/><circle cx="110" cy="98" r="38"/><circle cx="72" cy="128" r="40"/>
    </g>
    <g fill="#3d5c46">
        <circle cx="60" cy="82" r="30"/><circle cx="94" cy="108" r="26"/>
    </g>
    <path class="canopy-snow" d="M30 76 q40 -34 84 -6 q-18 -10 -40 -8 q-26 0 -44 14z" fill="#eef4f9" opacity=".9"/>
</svg>
