<svg xmlns="http://www.w3.org/2000/svg" viewBox="0 0 108 152">
  <!-- Chaudière fioul en marche : flamme visible dans le regard, pas d'alerte. -->
  <defs>
    <linearGradient id="bBody2" x1="0" y1="0" x2="1" y2="0">
      <stop offset="0" stop-color="#7c8b99"/><stop offset=".5" stop-color="#a7b4c0"/><stop offset="1" stop-color="#68767f"/>
    </linearGradient>
    <style>
      .flame { animation: flick .5s infinite alternate ease-in-out; transform-origin: 48px 96px; }
      @keyframes flick { to { transform: scaleY(1.18); } }
    </style>
  </defs>
  <path d="M8 4 v30 h18" stroke="#55636f" stroke-width="7" fill="none" stroke-linecap="round"/>
  <path d="M92 4 v50 h-16" stroke="#55636f" stroke-width="7" fill="none" stroke-linecap="round"/>
  <rect x="22" y="30" width="52" height="92" rx="8" fill="url(#bBody2)"/>
  <rect x="22" y="30" width="52" height="14" rx="7" fill="#8d9aa6"/>
  <circle cx="48" cy="64" r="11" fill="#2b3642"/>
  <circle cx="48" cy="64" r="11" fill="none" stroke="#4a5866" stroke-width="3"/>
  <path d="M42 64 a6 6 0 0 1 12 0" stroke="#7fd49a" stroke-width="2.5" fill="none"/>
  <rect x="34" y="88" width="28" height="18" rx="3" fill="#1c242e"/>
  <path class="flame" d="M42 102 q2 -8 6 -10 q4 2 6 10 q-2 3 -6 3 q-4 0 -6 -3z" fill="#f0a03c"/>
</svg>
