<svg xmlns="http://www.w3.org/2000/svg" viewBox="0 0 150 275">
  <!-- Arbre d'hiver, neige posée sur la canopée. -->
  <ellipse cx="72" cy="258" rx="70" ry="12" fill="#adbfd0" opacity=".6"/>
  <path d="M68 258 q-4 -60 -8 -96 q-16 -22 -30 -30 q18 4 30 18 q-2 -30 4 -52 q6 26 8 52 q14 -18 30 -22 q-16 12 -28 34 q0 50 -6 96z" fill="#4c3a2c"/>
  <g fill="#2e4a38">
    <circle cx="64" cy="48" r="46"/><circle cx="28" cy="84" r="36"/><circle cx="102" cy="80" r="38"/><circle cx="64" cy="110" r="40"/>
  </g>
  <g fill="#3d5c46">
    <circle cx="52" cy="64" r="30"/><circle cx="86" cy="90" r="26"/>
  </g>
  <path d="M22 58 q40 -34 84 -6 q-18 -10 -40 -8 q-26 0 -44 14z" fill="#eef4f9" opacity=".9"/>
</svg>
